<svg width="40" height="40" viewBox="0 0 40 40" fill="none" xmlns="http://www.w3.org/2000/svg">
<g id="Iconly/Bulk/Location">
<g id="Location">
<path id="Path_34175" fill-rule="evenodd" clip-rule="evenodd" d="M14.2194 4.8946C17.8608 2.77877 22.3367 2.81575 25.944 4.99147C29.5158 7.2115 31.6866 11.1736 31.6664 15.4357C31.5833 19.6699 29.2555 23.65 26.3458 26.7268C24.6664 28.5106 22.7877 30.088 20.7481 31.4267C20.538 31.5482 20.3079 31.6295 20.0692 31.6666C19.8393 31.6569 19.6155 31.589 19.4179 31.4691C16.3041 29.4576 13.5722 26.89 11.3539 23.8899C9.49766 21.3856 8.44307 18.36 8.33335 15.224C8.33093 10.9537 10.578 7.01043 14.2194 4.8946ZM16.3236 16.9913C16.9361 18.5014 18.382 19.4864 19.986 19.4864C21.0368 19.4939 22.047 19.073 22.7913 18.3174C23.5357 17.5618 23.9525 16.5344 23.9487 15.4639C23.9544 13.83 22.9924 12.3538 21.5121 11.7246C20.0318 11.0954 18.3251 11.4372 17.1889 12.5905C16.0526 13.7439 15.7111 15.4812 16.3236 16.9913Z" fill="#130F26"/>
<ellipse id="Ellipse_743" opacity="0.4" cx="20" cy="35" rx="8.33333" ry="1.66667" fill="#130F26"/>
</g>
</g>
</svg>
