<svg width="40" height="40" viewBox="0 0 40 40" fill="none" xmlns="http://www.w3.org/2000/svg">
<g id="Location">
<g id="Location_2">
<path id="Path_34175" fill-rule="evenodd" clip-rule="evenodd" d="M14.2194 4.89466C17.8608 2.77883 22.3367 2.81581 25.944 4.99153C29.5158 7.21156 31.6866 11.1737 31.6664 15.4358C31.5833 19.6699 29.2555 23.65 26.3458 26.7269C24.6664 28.5107 22.7877 30.0881 20.7481 31.4268C20.538 31.5482 20.3079 31.6296 20.0692 31.6667C19.8393 31.6569 19.6155 31.589 19.4179 31.4691C16.3041 29.4577 13.5722 26.8901 11.3539 23.89C9.49766 21.3856 8.44307 18.3601 8.33335 15.2241C8.33093 10.9538 10.578 7.01049 14.2194 4.89466ZM16.3236 16.9913C16.9361 18.5014 18.382 19.4864 19.986 19.4864C21.0368 19.494 22.047 19.0731 22.7913 18.3175C23.5357 17.5619 23.9525 16.5344 23.9487 15.464C23.9544 13.8301 22.9924 12.3539 21.5121 11.7246C20.0318 11.0954 18.3251 11.4373 17.1889 12.5906C16.0526 13.7439 15.7111 15.4812 16.3236 16.9913Z" fill="#130F26"/>
<ellipse id="Ellipse_743" opacity="0.4" cx="20" cy="35" rx="8.33333" ry="1.66667" fill="#130F26"/>
</g>
</g>
</svg>
